<svg width="39" height="41" viewBox="0 0 39 41" fill="none" xmlns="http://www.w3.org/2000/svg">
<path d="M19.5 19.475C17.653 19.475 15.8816 18.935 14.5755 17.9739C13.2695 17.0128 12.5357 15.7092 12.5357 14.35C12.5357 12.9908 13.2695 11.6872 14.5755 10.7261C15.8816 9.76495 17.653 9.225 19.5 9.225C21.347 9.225 23.1184 9.76495 24.4245 10.7261C25.7306 11.6872 26.4643 12.9908 26.4643 14.35C26.4643 15.023 26.2842 15.6895 25.9342 16.3113C25.5842 16.933 25.0712 17.498 24.4245 17.9739C23.7778 18.4498 23.0101 18.8273 22.1651 19.0849C21.3202 19.3424 20.4146 19.475 19.5 19.475ZM19.5 0C14.3283 0 9.36838 1.51187 5.71142 4.20302C2.05446 6.89417 0 10.5441 0 14.35C0 25.1125 19.5 41 19.5 41C19.5 41 39 25.1125 39 14.35C39 10.5441 36.9455 6.89417 33.2886 4.20302C29.6316 1.51187 24.6717 0 19.5 0Z" fill="#603F26"/>
</svg>
