<svg width="40" height="40" viewBox="0 0 40 40" fill="none" xmlns="http://www.w3.org/2000/svg">
<path d="M26.4286 19.9999C26.4286 23.5503 23.5504 26.4285 20 26.4285C16.4496 26.4285 13.5714 23.5503 13.5714 19.9999C13.5714 16.4495 16.4496 13.5714 20 13.5714C23.5504 13.5714 26.4286 16.4495 26.4286 19.9999ZM26.4286 19.9999L26.4286 22.1429C26.4286 24.5098 28.3474 26.4286 30.7143 26.4286C32.2347 26.4286 33.5703 25.6368 34.3311 24.4431C34.7546 23.7785 35 22.9893 35 22.1429V20C35 11.7157 28.2843 5 20 5C11.7157 5 5 11.7157 5 20C5 28.2843 11.7157 35 20 35C23.187 35 26.1418 34.0061 28.5714 32.3114" stroke="#603F26" stroke-width="4" stroke-linecap="round" stroke-linejoin="round"/>
</svg>
