<svg width="82" height="67" viewBox="0 0 82 67" fill="none" xmlns="http://www.w3.org/2000/svg">
<path fill-rule="evenodd" clip-rule="evenodd" d="M14.7129 9.07292C14.7129 8.33252 15.0727 7.62245 15.7133 7.09891C16.3538 6.57537 17.2226 6.28125 18.1285 6.28125H65.9464C66.8522 6.28125 67.721 6.57537 68.3616 7.09891C69.0021 7.62245 69.3619 8.33252 69.3619 9.07292V59.3229C69.3619 60.0633 69.0021 60.7734 68.3616 61.2969C67.721 61.8205 66.8522 62.1146 65.9464 62.1146H18.1285C17.2226 62.1146 16.3538 61.8205 15.7133 61.2969C15.0727 60.7734 14.7129 60.0633 14.7129 59.3229V9.07292ZM51.9767 39.2397C51.6591 39.1559 51.5259 39.1978 51.2355 39.3234C50.2894 39.7561 47.9703 40.7862 46.6006 41.3669C46.2535 41.5211 45.8651 41.6027 45.4701 41.6042C45.0507 41.6045 44.6397 41.5077 44.2849 41.325C42.3528 40.4215 40.5731 39.316 38.9907 38.0365C37.4386 36.7398 36.0936 35.2877 34.9877 33.715C34.774 33.4323 34.6563 33.1082 34.6467 32.776C34.6371 32.4439 34.7359 32.1156 34.933 31.825C35.6435 30.686 36.9072 28.7932 37.4367 28.0423C37.5938 27.805 37.645 27.6766 37.5391 27.4393L35.3019 22.5818C35.1558 22.3037 34.9141 22.0663 34.6061 21.8983C34.2981 21.7303 33.9371 21.639 33.5668 21.6354C33.2526 21.6354 32.8837 21.7415 32.8051 21.7638C31.5104 22.1442 30.3906 22.8414 29.5979 23.7605C28.8052 24.6796 28.3783 25.776 28.3752 26.9005C28.3752 27.5705 28.5869 28.1903 28.6142 28.341C29.8643 32.7734 32.6206 36.8271 36.5657 40.0353C40.5 43.257 45.4662 45.5066 50.894 46.5259C52.517 46.8852 54.246 46.7335 55.7387 46.1007C57.2314 45.4679 58.3791 44.4003 58.9547 43.1089C58.982 43.0447 59.1392 42.746 59.1118 42.4864C59.0969 42.1829 58.9778 41.889 58.7682 41.6383C58.5587 41.3875 58.267 41.19 57.9266 41.0682L51.9767 39.2397Z" fill="#603F26"/>
</svg>
