<svg width="217" height="228" viewBox="0 0 217 228" fill="none" xmlns="http://www.w3.org/2000/svg">
  <path id="Vector" fill-rule="evenodd" clip-rule="evenodd" d="M27.1762 208.849C64.6105 241.912 129.113 231.34 174.655 183.507C215.864 140.208 228 80.5991 206.628 40.5055C205.755 43.7958 204.799 47.0613 203.763 50.2987C198.234 67.76 188.695 90.1798 172.801 106.897C163.699 116.46 152.575 120.887 141.468 123.013C130.765 125.067 119.304 125.067 108.972 125.067H108.5C97.6287 125.067 87.9542 125.102 79.2909 126.749C70.8467 128.361 64.2059 131.389 59.099 136.755C46.5759 149.913 38.334 168.561 33.2102 184.694C30.7092 192.601 28.6938 200.67 27.1762 208.849ZM10.3721 187.492C-10.9996 147.398 1.13576 87.789 42.3454 44.4901C87.8867 -3.36004 152.39 -13.897 189.824 19.1483C188.301 27.3278 186.28 35.3961 183.773 43.3036C178.666 59.4189 170.424 78.0844 157.901 91.2423C152.794 96.6082 146.153 99.6365 137.709 101.248C129.046 102.895 119.371 102.93 108.5 102.93H108.028C97.6962 102.93 86.235 102.93 75.5323 104.967C64.425 107.092 53.301 111.537 44.1994 121.1C28.3055 137.817 18.7658 160.237 13.2374 177.698C12.1475 181.146 11.1924 184.41 10.3721 187.492Z" fill="#4B341E" fill-opacity="0.5"/>
</svg>
