<svg width="57" height="57" viewBox="0 0 57 57" fill="none" xmlns="http://www.w3.org/2000/svg">
<path d="M49.3094 0H7.44066C3.33818 0 0 3.33824 0 7.44168V49.3084C0 53.4127 3.33729 56.7509 7.44066 56.7509H49.3094C53.4119 56.7509 56.7509 53.4127 56.7509 49.3084V7.44168C56.7509 3.33824 53.4119 0 49.3094 0ZM47.668 25.0332C47.668 26.4616 46.4974 27.6215 45.0583 27.6215C43.6175 27.6215 42.4487 26.4625 42.4487 25.0332C42.4487 23.6039 43.6166 22.445 45.0583 22.445C46.4983 22.445 47.668 23.603 47.668 25.0332ZM45.1639 16.7333L46.1565 16.7878C46.1026 17.7421 45.6727 18.6361 44.9609 19.2739C44.2491 19.9117 43.3135 20.2413 42.3592 20.1905L42.4129 19.1989C43.1047 19.2365 43.7832 18.9978 44.2991 18.5352C44.815 18.0727 45.1261 17.4251 45.1639 16.7333ZM42.3824 13.225L43.3615 13.0558C43.5237 13.9978 43.3057 14.9657 42.7555 15.7473C42.2052 16.5289 41.3676 17.0605 40.426 17.2255L40.256 16.2473C40.9384 16.1278 41.5455 15.7424 41.9442 15.1758C42.3428 14.6092 42.5004 13.9076 42.3824 13.225ZM38.8814 10.4336L39.7978 10.0487C40.1675 10.9296 40.173 11.9212 39.8132 12.8062C39.4534 13.6912 38.7576 14.3975 37.8781 14.7706L37.4915 13.855C38.1286 13.5848 38.6327 13.0731 38.8934 12.432C39.154 11.7909 39.1491 11.0717 38.8814 10.4336ZM34.8433 8.49953L35.6488 7.9187C36.2076 8.69397 36.4364 9.65916 36.2849 10.6028C36.1334 11.5464 35.6141 12.3915 34.8406 12.9529L34.2589 12.1474C34.8188 11.7404 35.1947 11.1282 35.3044 10.4448C35.4141 9.76129 35.2478 9.0613 34.8433 8.49953ZM28.3791 7.69495C29.2828 7.69436 30.1497 8.0528 30.7892 8.69143C31.4287 9.33006 31.7882 10.1966 31.7888 11.1003C31.7894 12.0041 31.431 12.871 30.7924 13.5105C30.1537 14.15 29.2873 14.5096 28.3835 14.5101C27.4798 14.5107 26.6128 14.1523 25.9734 13.5137C25.3339 12.875 24.9743 12.0085 24.9737 11.1048C24.9732 10.201 25.3316 9.33407 25.9702 8.6946C26.6088 8.05513 27.4753 7.69555 28.3791 7.69495ZM19.1315 8.78592C20.0804 8.90064 20.9452 9.38691 21.5362 10.1382C22.1272 10.8894 22.3963 11.8443 22.2844 12.7936L21.2973 12.6764C21.3783 11.9885 21.1833 11.2967 20.755 10.7524C20.3267 10.2082 19.7 9.85598 19.0124 9.77307L19.1315 8.78592ZM16.5898 16.923L15.6528 17.2505C15.4246 16.5964 14.946 16.0596 14.3222 15.7582C13.6985 15.4568 12.9805 15.4154 12.3262 15.6432L11.9996 14.7053C12.9025 14.3922 13.8928 14.4499 14.7532 14.8658C15.6137 15.2817 16.2741 16.0209 16.5898 16.923ZM14.5824 19.837L13.742 20.3677C13.3725 19.782 12.7855 19.3669 12.11 19.2137C11.4346 19.0605 10.726 19.1817 10.1399 19.5506L9.61004 18.7085C10.4195 18.2003 11.3974 18.0337 12.3294 18.2452C13.2615 18.4568 14.0717 19.0292 14.5824 19.837ZM11.2075 22.1156C11.8948 22.1158 12.5538 22.389 13.0396 22.8751C13.5255 23.3611 13.7984 24.0202 13.7984 24.7074C13.7975 25.3941 13.5242 26.0524 13.0384 26.5378C12.5527 27.0232 11.8942 27.2961 11.2075 27.2966C10.5288 27.284 9.88221 27.0055 9.4067 26.5211C8.93119 26.0366 8.66479 25.3849 8.66479 24.7061C8.66479 24.0273 8.93119 23.3756 9.4067 22.8911C9.88221 22.4067 10.5288 22.1282 11.2075 22.1156ZM12.6583 28.1289C12.6377 30.7127 12.0891 31.0537 11.1538 31.0537C10.2132 31.0537 9.71296 30.7118 9.69148 28.1289H12.6583ZM17.8785 39.4682C17.8785 40.0947 17.3845 40.6039 16.758 40.6039C16.4576 40.6029 16.1699 40.4828 15.9579 40.2699C15.746 40.0569 15.6272 39.7686 15.6277 39.4682V32.2341H14.6809V41.3467H7.62592V32.2332H6.688V39.4673C6.688 40.0938 6.18056 40.603 5.55499 40.603C4.92942 40.603 4.43719 40.0938 4.43719 39.4673V31.443C4.43719 29.6128 6.07049 28.1289 7.90246 28.1289H9.01668C9.01668 30.5632 9.71833 31.7285 10.8576 31.7285V34.6461C10.6961 34.7151 10.5584 34.8302 10.4618 34.9769C10.3652 35.1236 10.3139 35.2956 10.3144 35.4712C10.3137 35.5886 10.3363 35.705 10.3809 35.8136C10.4256 35.9222 10.4914 36.0208 10.5745 36.1038C10.6576 36.1867 10.7563 36.2523 10.865 36.2967C10.9737 36.3412 11.0901 36.3636 11.2075 36.3626C11.7033 36.3626 12.1007 35.9545 12.1007 35.4587C12.1007 35.0891 11.8743 34.7705 11.5539 34.6336V31.7177C12.6395 31.7177 13.3751 30.65 13.3751 28.1289H14.5466C16.3768 28.1289 17.8785 29.6128 17.8785 31.4439V39.4682ZM18.2159 14.6408C18.1391 13.9528 17.7931 13.3231 17.2535 12.8894C16.7138 12.4557 16.0244 12.2533 15.336 12.3264L15.2286 11.3384C16.1789 11.2367 17.1309 11.5157 17.876 12.1143C18.6211 12.713 19.0986 13.5825 19.204 14.5325L18.2159 14.6408ZM36.5205 30.037C36.5072 30.4172 36.3468 30.7773 36.0732 31.0416C35.7996 31.3058 35.434 31.4535 35.0536 31.4535C34.6732 31.4535 34.3077 31.3058 34.0341 31.0416C33.7604 30.7773 33.6001 30.4172 33.5868 30.037L33.5814 20.1225H32.7196V47.0083C32.7196 48.0697 31.8595 48.9298 30.7972 48.9298C29.7349 48.9298 28.8749 48.0697 28.8749 47.0083V30.3574H27.8895V47.0083C27.8787 47.5113 27.6712 47.9901 27.3116 48.342C26.9521 48.6939 26.4689 48.891 25.9658 48.891C25.4627 48.891 24.9796 48.6939 24.62 48.342C24.2604 47.9901 24.0529 47.5113 24.0421 47.0083V20.1225H23.1767L23.1749 30.037C23.1616 30.4172 23.0012 30.7773 22.7276 31.0416C22.454 31.3058 22.0884 31.4535 21.708 31.4535C21.3277 31.4535 20.9621 31.3058 20.6885 31.0416C20.4149 30.7773 20.2545 30.4172 20.2412 30.037V19.0745C20.2412 16.6608 21.9685 15.2924 24.3347 15.2924H32.4278C34.7923 15.2924 36.5214 16.6599 36.5214 19.0745L36.5205 30.037ZM52.1195 39.6812C51.536 39.8476 50.9391 39.5541 50.7852 39.0189L48.7885 32.0453L47.8121 32.0435L50.4818 41.3458H39.6349L42.3028 32.0435L41.3282 32.0453L39.3306 39.0189C39.1785 39.5541 38.5806 39.8485 37.9971 39.6812C37.4118 39.5138 37.0422 39.0028 37.2382 38.3343L39.293 31.1808C40.1155 28.3204 42.5077 28.4099 42.5077 28.4099H47.6099C47.6099 28.4099 50.0039 28.3204 50.8245 31.1808L52.8776 38.3343C53.0754 39.0028 52.7048 39.5138 52.1195 39.6812Z" fill="#603F26"/>
</svg>
